<svg xmlns="http://www.w3.org/2000/svg" xmlns:xlink="http://www.w3.org/1999/xlink" version="1.1" width="1000" height="1000" viewBox="0 0 1000 1000" xml:space="preserve">
<desc>Created with Fabric.js 3.5.0</desc>
<defs>
</defs>
<rect x="0" y="0" width="100%" height="100%" fill="#ffffff"/>
<g transform="matrix(5.1653 0 0 5.1653 863.425 519.0699)" id="297941">
<path style="stroke: none; stroke-width: 1; stroke-dasharray: none; stroke-linecap: butt; stroke-dashoffset: 0; stroke-linejoin: miter; stroke-miterlimit: 4; is-custom-font: none; font-file-url: none; fill: rgb(255,255,255); fill-rule: nonzero; opacity: 1;" transform=" translate(-168.4725, -19.6919)" d="M 165.173 27.1572 V 19.3546 C 165.173 17.0079 166.522 15.4826 168.722 15.4826 C 170.57 15.4826 171.773 16.6559 171.773 19.0906 V 27.1572 H 175.351 V 18.2399 C 175.351 14.4853 173.474 12.2266 169.837 12.2266 C 167.871 12.2266 166.111 13.0773 165.202 14.5439 L 164.909 12.6666 H 161.594 V 27.1572 H 165.173 Z" stroke-linecap="round"/>
</g>
<g transform="matrix(5.1653 0 0 5.1653 237.0731 500.0001)" id="569333">
<path style="stroke: none; stroke-width: 1; stroke-dasharray: none; stroke-linecap: butt; stroke-dashoffset: 0; stroke-linejoin: miter; stroke-miterlimit: 4; is-custom-font: none; font-file-url: none; fill: rgb(60,80,224); fill-rule: nonzero; opacity: 1;" transform=" translate(-16, -16)" d="M 0 8.42105 C 0 3.77023 3.77023 0 8.42105 0 H 23.5789 C 28.2298 0 32 3.77023 32 8.42105 V 23.5789 C 32 28.2298 28.2298 32 23.5789 32 H 8.42105 C 3.77023 32 0 28.2298 0 23.5789 V 8.42105 Z" stroke-linecap="round"/>
</g>
<g transform="matrix(5.1653 0 0 5.1653 206.6268 500.0013)" id="149363">
<path style="stroke: none; stroke-width: 1; stroke-dasharray: none; stroke-linecap: butt; stroke-dashoffset: 0; stroke-linejoin: miter; stroke-miterlimit: 4; is-custom-font: none; font-file-url: none; fill: rgb(255,255,255); fill-rule: nonzero; opacity: 1;" transform=" translate(-10.1056, -16.0002)" d="M 8.42139 8.42127 C 8.42139 7.49111 9.17543 6.73706 10.1056 6.73706 V 6.73706 C 11.0358 6.73706 11.7898 7.49111 11.7898 8.42127 V 23.5792 C 11.7898 24.5093 11.0358 25.2634 10.1056 25.2634 V 25.2634 C 9.17543 25.2634 8.42139 24.5093 8.42139 23.5792 V 8.42127 Z" stroke-linecap="round"/>
</g>
<g transform="matrix(5.1653 0 0 5.1653 239.2476 517.3975)" id="148268">
<path style="stroke: none; stroke-width: 1; stroke-dasharray: none; stroke-linecap: butt; stroke-dashoffset: 0; stroke-linejoin: miter; stroke-miterlimit: 4; is-custom-font: none; font-file-url: none; fill: rgb(255,255,255); fill-rule: nonzero; opacity: 0.9;" transform=" translate(-16.421, -19.3681)" d="M 14.7368 15.1576 C 14.7368 14.2274 15.4909 13.4734 16.421 13.4734 V 13.4734 C 17.3512 13.4734 18.1052 14.2274 18.1052 15.1576 V 23.5786 C 18.1052 24.5088 17.3512 25.2629 16.421 25.2629 V 25.2629 C 15.4909 25.2629 14.7368 24.5088 14.7368 23.5786 V 15.1576 Z" stroke-linecap="round"/>
</g>
<g transform="matrix(5.1653 0 0 5.1653 271.8687 506.5224)" id="537516">
<path style="stroke: none; stroke-width: 1; stroke-dasharray: none; stroke-linecap: butt; stroke-dashoffset: 0; stroke-linejoin: miter; stroke-miterlimit: 4; is-custom-font: none; font-file-url: none; fill: rgb(255,255,255); fill-rule: nonzero; opacity: 0.7;" transform=" translate(-22.7364, -17.2627)" d="M 21.0522 10.9469 C 21.0522 10.0167 21.8063 9.2627 22.7365 9.2627 V 9.2627 C 23.6666 9.2627 24.4207 10.0167 24.4207 10.9469 V 23.5785 C 24.4207 24.5086 23.6666 25.2627 22.7365 25.2627 V 25.2627 C 21.8063 25.2627 21.0522 24.5086 21.0522 23.5785 V 10.9469 Z" stroke-linecap="round"/>
</g>
<g transform="matrix(1 0 0 1 589.7823 500)" style="" id="626481">
		
<path xml:space="preserve" font-family="Lato" font-size="108" font-style="normal" font-weight="bold" style="stroke: none; stroke-width: 1; stroke-dasharray: none; stroke-linecap: butt; stroke-dashoffset: 0; stroke-linejoin: miter; stroke-miterlimit: 4; is-custom-font: none; font-file-url: none; fill: rgb(0,0,0); fill-rule: nonzero; opacity: 1; white-space: pre;" d="M-214.00-44.16L-164.75-44.16L-164.75-32.60L-199.37-32.60L-199.37-10.95L-172.10-10.95L-172.10 0.23L-199.37 0.23L-199.37 22.32L-164.75 22.32L-164.75 33.93L-214.00 33.93L-214.00-44.16ZM-158.76 33.93L-139.81 5.36L-158.00-21.48L-145.15-21.48Q-143.69-21.48-142.99-21.07Q-142.29-20.67-141.75-19.75L-141.75-19.75L-130.14-1.23Q-129.87-2.14-129.46-3.06Q-129.06-3.98-128.47-4.90L-128.47-4.90L-119.12-19.48Q-118.48-20.50-117.77-20.99Q-117.07-21.48-116.05-21.48L-116.05-21.48L-103.79-21.48L-122.04 4.77L-103.03 33.93L-115.88 33.93Q-117.34 33.93-118.23 33.17Q-119.12 32.42-119.72 31.44L-119.72 31.44L-131.49 12.17Q-131.98 14.11-132.84 15.41L-132.84 15.41L-143.21 31.44Q-143.80 32.36-144.67 33.14Q-145.53 33.93-146.83 33.93L-146.83 33.93L-158.76 33.93ZM-81.27 52.02L-94.61 52.02L-94.61-21.48L-86.45-21.48Q-85.16-21.48-84.24-20.88Q-83.32-20.29-83.05-19.05L-83.05-19.05L-81.97-13.92Q-78.62-17.75-74.28-20.13Q-69.93-22.50-64.10-22.50L-64.10-22.50Q-59.56-22.50-55.81-20.61Q-52.06-18.72-49.33-15.13Q-46.60-11.54-45.12-6.28Q-43.63-1.01-43.63 5.79L-43.63 5.79Q-43.63 12.00-45.31 17.30Q-46.98 22.59-50.08 26.48Q-53.19 30.36-57.59 32.55Q-61.99 34.74-67.45 34.74L-67.45 34.74Q-72.14 34.74-75.41 33.31Q-78.68 31.88-81.27 29.34L-81.27 29.34L-81.27 52.02ZM-68.69-11.97L-68.69-11.97Q-72.85-11.97-75.79-10.22Q-78.73-8.46-81.27-5.28L-81.27-5.28L-81.27 19.56Q-79.00 22.37-76.33 23.48Q-73.66 24.59-70.58 24.59L-70.58 24.59Q-67.55 24.59-65.10 23.45Q-62.64 22.32-60.94 20.00Q-59.24 17.67-58.32 14.14Q-57.40 10.60-57.40 5.79L-57.40 5.79Q-57.40 0.93-58.18-2.44Q-58.97-5.82-60.43-7.92Q-61.88-10.03-63.96-11.00Q-66.04-11.97-68.69-11.97ZM-10.64-22.34L-10.64-22.34Q-5.40-22.34-1.00-20.67Q3.40-18.99 6.59-15.78Q9.77-12.57 11.56-7.90Q13.34-3.22 13.34 2.77L13.34 2.77Q13.34 4.28 13.20 5.28Q13.07 6.28 12.72 6.85Q12.37 7.41 11.77 7.66Q11.18 7.90 10.26 7.90L10.26 7.90L-23.98 7.90Q-23.38 16.43-19.39 20.43Q-15.39 24.42-8.80 24.42L-8.80 24.42Q-5.56 24.42-3.21 23.67Q-0.86 22.91 0.89 21.99Q2.65 21.08 3.97 20.32Q5.29 19.56 6.53 19.56L6.53 19.56Q7.34 19.56 7.94 19.89Q8.53 20.21 8.96 20.81L8.96 20.81L12.85 25.67Q10.64 28.26 7.88 30.01Q5.13 31.77 2.13 32.82Q-0.86 33.87-3.97 34.31Q-7.07 34.74-9.99 34.74L-9.99 34.74Q-15.77 34.74-20.74 32.82Q-25.70 30.90-29.38 27.15Q-33.05 23.40-35.15 17.86Q-37.26 12.33-37.26 5.04L-37.26 5.04Q-37.26-0.63-35.42-5.63Q-33.59-10.62-30.16-14.32Q-26.73-18.02-21.79-20.18Q-16.85-22.34-10.64-22.34ZM-10.37-12.78L-10.37-12.78Q-16.20-12.78-19.49-9.49Q-22.79-6.19-23.71-0.15L-23.71-0.15L1.35-0.15Q1.35-2.74 0.65-5.03Q-0.05-7.33-1.51-9.06Q-2.97-10.78-5.18-11.78Q-7.40-12.78-10.37-12.78ZM37.53 33.93L24.19 33.93L24.19-21.48L32.35-21.48Q34.94-21.48 35.75-19.05L35.75-19.05L36.67-14.67Q38.34-16.40 40.20-17.80Q42.07-19.21 44.15-20.23Q46.22-21.26 48.60-21.80Q50.98-22.34 53.78-22.34L53.78-22.34Q58.32-22.34 61.83-20.80Q65.34-19.26 67.69-16.48Q70.04-13.70 71.25-9.84Q72.47-5.98 72.47-1.33L72.47-1.33L72.47 33.93L59.13 33.93L59.13-1.33Q59.13-6.41 56.78-9.19Q54.43-11.97 49.73-11.97L49.73-11.97Q46.28-11.97 43.25-10.41Q40.23-8.84 37.53-6.14L37.53-6.14L37.53 33.93ZM121.50-15.48L118.48-10.68Q117.94-9.81 117.34-9.46Q116.75-9.11 115.83-9.11L115.83-9.11Q114.86-9.11 113.75-9.65Q112.64-10.19 111.19-10.87Q109.73-11.54 107.87-12.08Q106.00-12.62 103.46-12.62L103.46-12.62Q99.52-12.62 97.25-10.95Q94.99-9.27 94.99-6.57L94.99-6.57Q94.99-4.79 96.15-3.58Q97.31-2.36 99.22-1.44Q101.14-0.52 103.57 0.20Q106.00 0.93 108.54 1.80Q111.08 2.66 113.51 3.77Q115.94 4.88 117.86 6.58Q119.77 8.28 120.93 10.65Q122.09 13.03 122.09 16.38L122.09 16.38Q122.09 20.37 120.64 23.75Q119.18 27.12 116.37 29.58Q113.56 32.04 109.43 33.41Q105.30 34.79 99.95 34.79L99.95 34.79Q97.09 34.79 94.37 34.28Q91.64 33.77 89.13 32.85Q86.62 31.93 84.48 30.69Q82.35 29.45 80.73 27.99L80.73 27.99L83.81 22.91Q84.40 21.99 85.21 21.51Q86.02 21.02 87.26 21.02L87.26 21.02Q88.51 21.02 89.61 21.72Q90.72 22.43 92.18 23.24Q93.64 24.05 95.61 24.75Q97.58 25.45 100.60 25.45L100.60 25.45Q102.98 25.45 104.68 24.88Q106.38 24.32 107.49 23.40Q108.59 22.48 109.11 21.26Q109.62 20.05 109.62 18.75L109.62 18.75Q109.62 16.81 108.46 15.57Q107.30 14.33 105.38 13.41Q103.46 12.49 101.01 11.76Q98.55 11.03 95.98 10.17Q93.42 9.30 90.96 8.14Q88.51 6.98 86.59 5.20Q84.67 3.42 83.51 0.83Q82.35-1.77 82.35-5.44L82.35-5.44Q82.35-8.84 83.70-11.92Q85.05-15.00 87.67-17.29Q90.29-19.59 94.20-20.96Q98.12-22.34 103.25-22.34L103.25-22.34Q108.97-22.34 113.67-20.45Q118.37-18.56 121.50-15.48L121.50-15.48ZM155.68-22.34L155.68-22.34Q160.92-22.34 165.32-20.67Q169.72-18.99 172.91-15.78Q176.09-12.57 177.88-7.90Q179.66-3.22 179.66 2.77L179.66 2.77Q179.66 4.28 179.52 5.28Q179.39 6.28 179.04 6.85Q178.69 7.41 178.09 7.66Q177.50 7.90 176.58 7.90L176.58 7.90L142.34 7.90Q142.94 16.43 146.93 20.43Q150.93 24.42 157.52 24.42L157.52 24.42Q160.76 24.42 163.11 23.67Q165.46 22.91 167.21 21.99Q168.97 21.08 170.29 20.32Q171.61 19.56 172.85 19.56L172.85 19.56Q173.66 19.56 174.26 19.89Q174.85 20.21 175.28 20.81L175.28 20.81L179.17 25.67Q176.96 28.26 174.20 30.01Q171.45 31.77 168.45 32.82Q165.46 33.87 162.35 34.31Q159.25 34.74 156.33 34.74L156.33 34.74Q150.55 34.74 145.58 32.82Q140.62 30.90 136.94 27.15Q133.27 23.40 131.17 17.86Q129.06 12.33 129.06 5.04L129.06 5.04Q129.06-0.63 130.90-5.63Q132.73-10.62 136.16-14.32Q139.59-18.02 144.53-20.18Q149.47-22.34 155.68-22.34ZM155.95-12.78L155.95-12.78Q150.12-12.78 146.83-9.49Q143.53-6.19 142.61-0.15L142.61-0.15L167.67-0.15Q167.67-2.74 166.97-5.03Q166.27-7.33 164.81-9.06Q163.35-10.78 161.14-11.78Q158.92-12.78 155.95-12.78ZM226.42-15.48L223.40-10.68Q222.86-9.81 222.26-9.46Q221.67-9.11 220.75-9.11L220.75-9.11Q219.78-9.11 218.67-9.65Q217.57-10.19 216.11-10.87Q214.65-11.54 212.79-12.08Q210.92-12.62 208.39-12.62L208.39-12.62Q204.44-12.62 202.18-10.95Q199.91-9.27 199.91-6.57L199.91-6.57Q199.91-4.79 201.07-3.58Q202.23-2.36 204.15-1.44Q206.06-0.52 208.49 0.20Q210.92 0.93 213.46 1.80Q216 2.66 218.43 3.77Q220.86 4.88 222.78 6.58Q224.69 8.28 225.86 10.65Q227.02 13.03 227.02 16.38L227.02 16.38Q227.02 20.37 225.56 23.75Q224.10 27.12 221.29 29.58Q218.48 32.04 214.35 33.41Q210.22 34.79 204.88 34.79L204.88 34.79Q202.01 34.79 199.29 34.28Q196.56 33.77 194.05 32.85Q191.54 31.93 189.41 30.69Q187.27 29.45 185.65 27.99L185.65 27.99L188.73 22.91Q189.32 21.99 190.13 21.51Q190.94 21.02 192.19 21.02L192.19 21.02Q193.43 21.02 194.54 21.72Q195.64 22.43 197.10 23.24Q198.56 24.05 200.53 24.75Q202.50 25.45 205.52 25.45L205.52 25.45Q207.90 25.45 209.60 24.88Q211.30 24.32 212.41 23.40Q213.52 22.48 214.03 21.26Q214.54 20.05 214.54 18.75L214.54 18.75Q214.54 16.81 213.38 15.57Q212.22 14.33 210.30 13.41Q208.39 12.49 205.93 11.76Q203.47 11.03 200.91 10.17Q198.34 9.30 195.89 8.14Q193.43 6.98 191.51 5.20Q189.59 3.42 188.43 0.83Q187.27-1.77 187.27-5.44L187.27-5.44Q187.27-8.84 188.62-11.92Q189.97-15.00 192.59-17.29Q195.21-19.59 199.13-20.96Q203.04-22.34 208.17-22.34L208.17-22.34Q213.89-22.34 218.59-20.45Q223.29-18.56 226.42-15.48L226.42-15.48Z"/></g>
</svg>